HIERARCHY
ROOT Hips
{
  OFFSET 2.26061 22.2878 23.7974
  CHANNELS 6 Xposition Yposition Zposition Zrotation Xrotation Yrotation
  JOINT LeftUpLeg
  {
    OFFSET 8.64259 1.95398 -2.38835
    CHANNELS 3 Zrotation Xrotation Yrotation
    JOINT LeftLeg
    {
      OFFSET 43.7702 0 0
      CHANNELS 3 Zrotation Xrotation Yrotation
      JOINT LeftFoot
      {
        OFFSET 40.6238 0 0
        CHANNELS 3 Zrotation Xrotation Yrotation
        JOINT LeftToeBase
        {
          OFFSET 12.7242 0 0
          CHANNELS 3 Zrotation Xrotation Yrotation
          End Site
          {
            OFFSET 0 0 0
          }
        }
      }
    }
  }
  JOINT RightUpLeg
  {
    OFFSET -8.2249 1.95398 -2.59336
    CHANNELS 3 Zrotation Xrotation Yrotation
    JOINT RightLeg
    {
      OFFSET 43.5653 0 0
      CHANNELS 3 Zrotation Xrotation Yrotation
      JOINT RightFoot
      {
        OFFSET 40.6238 0 0
        CHANNELS 3 Zrotation Xrotation Yrotation
        JOINT RightToeBase
        {
          OFFSET 12.7242 0 0
          CHANNELS 3 Zrotation Xrotation Yrotation
          End Site
          {
            OFFSET 0 0 0
          }
        }
      }
    }
  }
  JOINT Spine
  {
    OFFSET 0.165834 0.87714 6.61349
    CHANNELS 3 Zrotation Xrotation Yrotation
    JOINT Spine1
    {
      OFFSET 7.38963 1.71661e-005 0
      CHANNELS 3 Zrotation Xrotation Yrotation
      JOINT Spine2
      {
        OFFSET 11.9445 1.14441e-005 0
        CHANNELS 3 Zrotation Xrotation Yrotation
        JOINT Spine3
        {
          OFFSET 14.7254 4.19617e-005 0
          CHANNELS 3 Zrotation Xrotation Yrotation
          JOINT Spine4
          {
            OFFSET 10.9679 0 0
            CHANNELS 3 Zrotation Xrotation Yrotation
            JOINT RightShoulder
            {
              OFFSET 2.46616 -1.6653 3.69651
              CHANNELS 3 Zrotation Xrotation Yrotation
              JOINT RightArm
              {
                OFFSET 13.0012 0 0
                CHANNELS 3 Zrotation Xrotation Yrotation
                JOINT RightForeArm
                {
                  OFFSET 28.7848 1.52588e-005 0
                  CHANNELS 3 Zrotation Xrotation Yrotation
                  JOINT RightHand
                  {
                    OFFSET 26.5688 1.52588e-005 0
                    CHANNELS 3 Zrotation Xrotation Yrotation
                    End Site
                    {
                      OFFSET 0 0 0
                    }
                  }
                }
              }
            }
            JOINT LeftShoulder
            {
              OFFSET 2.38034 -1.29275 -3.7523
              CHANNELS 3 Zrotation Xrotation Yrotation
              JOINT LeftArm
              {
                OFFSET 16.3182 6.10351e-005 0
                CHANNELS 3 Zrotation Xrotation Yrotation
                JOINT LeftForeArm
                {
                  OFFSET 27.0901 0 0
                  CHANNELS 3 Zrotation Xrotation Yrotation
                  JOINT LeftHand
                  {
                    OFFSET 24.5451 1.52588e-005 0
                    CHANNELS 3 Zrotation Xrotation Yrotation
                    End Site
                    {
                      OFFSET 0 0 0
                    }
                  }
                }
              }
            }
            JOINT Neck
            {
              OFFSET 5.0226 -0.0266342 0
              CHANNELS 3 Zrotation Xrotation Yrotation
              JOINT Head
              {
                OFFSET 6.69363 2.86102e-005 0
                CHANNELS 3 Zrotation Xrotation Yrotation
                End Site
                {
                  OFFSET 0 0 0
                }
              }
            }
          }
        }
      }
    }
  }
}
MOTION
Frames:	7
Frame Time:	0.0416667
-230.852 96.183 -216.335 88.4195 -65.2857 88.6823 -170.913 5.69191 91.6335 -12.7692 -2.35839 -0.547798 63.3479 1.73577 4.43239 32.5243 2.72233 4.66272 173.773 1.26048 90.3618 -9.2139 -6.97372 -1.89124 67.0521 -4.3285 -2.4102 29.248 0.236856 -3.53903 -0.431318 6.67313 -89.9383 13.5288 -0.825593 0.230205 1.85807 -0.814652 0.266308 -20.6792 -0.856596 -0.0285732 -0.666546 -0.856599 -0.0285917 99.1299 -49.5311 -86.7418 22.5635 -11.7081 16.3174 6.64709 -3.11423 -89.1454 -79.0909 -0.4603 -5.34205 -99.8315 -54.8649 65.9537 -18.1308 18.9156 4.06662 8.78511 13.4686 -43.522 3.40244 0.135672 0.112621 -0.210886 5.58763 1.00422 6.75156 5.69338 3.03162 
-230.752 96.1451 -216.041 87.6158 -63.9264 88.0288 -170.982 6.123 91.7323 -12.8421 -1.03774 -0.490659 63.1972 1.61905 4.2304 32.7304 2.96659 3.21979 173.576 0.986009 90.4655 -8.53475 -5.20344 -1.55916 67.8566 -4.75488 -2.61053 27.48 0.0405207 -1.48293 -0.626603 6.6578 -89.9358 13.5612 -1.21158 0.286515 1.89075 -1.19778 0.339556 -20.6489 -1.24167 -0.0909205 -0.636296 -1.24167 -0.0909233 99.1043 -49.2773 -86.7983 23.1599 -11.6768 15.3596 6.69401 -3.27446 -88.6869 -75.5413 1.72953 -8.22236 -99.3619 -54.3343 66.4265 -18.9953 18.4453 4.66962 7.99262 10.8526 -46.5123 6.80043 0.523161 3.38392 0.566514 7.29953 -0.210142 6.28423 7.57381 3.82144 
-231.083 96.1165 -215.556 90.1936 -66.2658 89.1154 -170.828 3.49976 91.0749 -11.1719 -3.67698 -0.839848 62.9023 1.65435 3.90528 32.0447 2.44456 2.37214 173.885 1.65548 89.6607 -12.0657 -8.00973 -2.712 68.2504 -4.61986 -2.51029 30.1251 0.215891 -2.77777 -0.471844 6.77133 -89.7576 13.3333 -0.819092 0.588222 1.66249 -0.792401 0.623689 -20.8744 -0.958005 0.314841 -0.861719 -0.95801 0.314836 98.2649 -49.2267 -88.118 23.6321 -10.5211 15.4202 11.8612 0.848765 -90.2579 -66.6481 4.11817 -12.5384 -98.5722 -53.8906 67.384 -19.7025 19.0708 5.86327 9.56515 7.92214 -53.7363 5.21492 0.520618 4.63771 -0.146599 8.88866 -1.32614 7.37775 9.42975 5.12329 
-230.983 96.0228 -215.112 89.0504 -67.0953 87.9948 -171.047 3.61264 90.8766 -11.3398 -4.88186 -0.649726 63.2062 1.63106 4.16844 31.6984 2.21619 1.43426 174.325 2.34258 89.7862 -12.9572 -8.74906 -3.06279 68.5045 -4.78989 -2.59879 30.9578 0.250357 -3.17459 -0.431944 6.72665 -89.7401 13.4225 -0.731182 0.61375 1.75161 -0.703465 0.645334 -20.7847 -0.881831 0.36562 -0.772049 -0.881838 0.365612 97.8632 -48.7625 -88.7891 23.6334 -4.58301 15.8397 6.83354 -5.29781 -88.3409 -62.4852 4.77858 -13.9047 -97.6109 -53.2879 68.5418 -20.1693 22.2902 6.65725 11.2824 4.40288 -63.1499 6.95016 0.277508 0.288589 -0.307889 9.84256 -1.6224 7.53272 10.4524 5.55454 
-230.849 95.9812 -214.749 88.4468 -68.4467 87.7048 -170.997 3.43989 91.0642 -11.3534 -6.1869 -0.554645 63.4773 1.5922 4.30671 32.2772 2.66624 1.76669 174.814 2.56273 90.0652 -13.2846 -10.1305 -3.39325 68.3027 -4.77874 -2.61193 31.6744 0.222893 -1.9975 -0.320902 6.75716 -89.7548 13.3607 -0.518141 0.556587 1.68973 -0.493142 0.578854 -20.8458 -0.661471 0.375135 -0.833108 -0.661461 0.375133 97.8333 -47.6607 -88.9353 26.8984 -2.9733 15.1866 13.9437 -2.46636 -84.6616 -53.0051 5.92532 -18.6814 -97.8699 -53.5279 68.2523 -19.0282 25.7804 7.17221 10.4841 -1.50032 -75.3577 9.42867 0.149001 -2.05243 -0.965326 10.552 -1.24264 8.78046 11.0964 4.93699 
-230.977 95.8557 -214.649 87.9233 -69.6444 87.07 -170.977 3.74428 90.9504 -12.1286 -7.34265 -0.62785 63.7511 1.92932 4.43597 32.5527 2.85808 2.40347 175.399 3.17116 90.1768 -14.1839 -11.0007 -3.94129 68.368 -4.82996 -2.63426 32.5775 0.240331 -1.6176 -0.310997 6.84489 -89.7247 13.1852 -0.484483 0.611483 1.51416 -0.457102 0.632204 -21.0211 -0.645863 0.437605 -1.00841 -0.645871 0.437602 97.3554 -47.022 -89.7634 30.6641 -1.52009 13.7031 21.5207 6.37295 -81.9924 -23.6038 1.66098 -15.2191 -98.1056 -54.0189 68.077 -16.6972 30.4267 5.77562 4.77118 -7.08487 -87.2889 6.74277 0.108692 -1.93081 -1.82353 11.1233 -0.917186 11.1638 11.6997 4.79001 
-231.205 95.7061 -214.783 86.2139 -71.5847 84.863 -170.633 4.93667 90.7546 -13.9966 -8.33184 -1.3441 63.3909 2.70988 5.43141 34.6096 4.55355 1.96707 176.058 5.27812 89.8849 -16.9915 -12.5156 -4.7592 68.8957 -4.93951 -2.64976 33.02 0.212149 0.0126466 -0.258873 6.99278 -89.6672 12.8889 -0.354476 0.708075 1.21779 -0.322968 0.722986 -21.3166 -0.550893 0.568809 -1.30391 -0.550893 0.568812 96.6625 -47.8676 -90.7837 31.0343 1.55719 11.6872 17.9579 11.3379 -75.7506 -1.14819 0.117767 -12.5633 -98.58 -54.0749 67.4323 -13.2858 32.9244 0.798876 4.8974 -9.81448 -97.0575 4.22308 0.013487 -2.53119 -1.91793 11.8017 -0.115413 12.9714 12.2196 3.85168 
